# xmcd
#
# Track frame offsets:
#	150
#	16044
#	35618
#	51251
#	69150
#	87124
#	104734
#	127147
#	143872
#	162965
#	179730
#	197719
#	212869
#	231503
#	249039
#	266157
#	283124
#	300606
#	318376
#
# Disc length: 4481 seconds
#
# Revision: 1
# Processed by: cddbd v1.5.2PL0 Copyright (c) Steve Scherf et al.
# Submitted via: audiograbber 1.83.01
#
DISCID=1d117f13
DTITLE=e-rotic - the very best of
DYEAR=1999
DGENRE=Techno
TTITLE0=max don't have sex with your ex
TTITLE1=big max
TTITLE2=come on make love to me
TTITLE3=fred come to bed
TTITLE4=wild love
TTITLE5=sex on the phone
TTITLE6=take my love
TTITLE7=willy use a billy ... boy
TTITLE8=why
TTITLE9=help me dr dick
TTITLE10=ecstasy
TTITLE11=love and sex are free
TTITLE12=frits love my tits
TTITLE13=gimme good sex
TTITLE14=sexual madness
TTITLE15=turn me on
TTITLE16=gotta get it groovin'
TTITLE17=shenandoah
TTITLE18=send me a message of love
EXTD=
EXTT0=
EXTT1=
EXTT2=
EXTT3=
EXTT4=
EXTT5=
EXTT6=
EXTT7=
EXTT8=
EXTT9=
EXTT10=
EXTT11=
EXTT12=
EXTT13=
EXTT14=
EXTT15=
EXTT16=
EXTT17=
EXTT18=
PLAYORDER=
